<mxfile host="app.diagrams.net" agent="Mozilla/5.0 (X11; Ubuntu; Linux x86_64; rv:130.0) Gecko/20100101 Firefox/130.0" version="24.7.16">
  <diagram name="Page-1" id="b5b7bab2-c9e2-2cf4-8b2a-24fd1a2a6d21">
    <mxGraphModel dx="821" dy="733" grid="1" gridSize="10" guides="1" tooltips="1" connect="1" arrows="1" fold="1" page="1" pageScale="1" pageWidth="827" pageHeight="1169" background="none" math="0" shadow="0">
      <root>
        <mxCell id="0" />
        <mxCell id="1" parent="0" />
        <mxCell id="6e0c8c40b5770093-72" value="" style="shape=folder;fontStyle=1;spacingTop=10;tabWidth=194;tabHeight=22;tabPosition=left;html=1;rounded=0;shadow=0;comic=0;labelBackgroundColor=none;strokeWidth=1;fillColor=none;fontFamily=Verdana;fontSize=10;align=center;" parent="1" vertex="1">
          <mxGeometry x="30" y="115" width="1001" height="940" as="geometry" />
        </mxCell>
        <mxCell id="6e0c8c40b5770093-73" value="StocknRoll Backend plan" style="text;html=1;align=left;verticalAlign=top;spacingTop=-4;fontSize=10;fontFamily=Verdana" parent="1" vertex="1">
          <mxGeometry x="43" y="114.5" width="130" height="20" as="geometry" />
        </mxCell>
        <mxCell id="P7q6h8zH5KanoZMI_rnn-13" value="" style="group" vertex="1" connectable="0" parent="1">
          <mxGeometry x="45.5" y="147" width="230" height="693" as="geometry" />
        </mxCell>
        <mxCell id="P7q6h8zH5KanoZMI_rnn-7" value="&amp;nbsp;" style="text;whiteSpace=wrap;html=1;" vertex="1" parent="P7q6h8zH5KanoZMI_rnn-13">
          <mxGeometry x="40" y="313" width="40" height="40" as="geometry" />
        </mxCell>
        <mxCell id="6e0c8c40b5770093-25" value="" style="shape=folder;fontStyle=1;spacingTop=10;tabWidth=123;tabHeight=24;tabPosition=left;html=1;rounded=0;shadow=0;comic=0;labelBackgroundColor=none;strokeWidth=1;fontFamily=Verdana;fontSize=10;align=center;" parent="P7q6h8zH5KanoZMI_rnn-13" vertex="1">
          <mxGeometry y="3" width="230" height="690" as="geometry" />
        </mxCell>
        <mxCell id="6e0c8c40b5770093-29" value="" style="triangle;whiteSpace=wrap;html=1;rounded=0;shadow=0;comic=0;labelBackgroundColor=none;strokeWidth=1;fontFamily=Verdana;fontSize=10;align=center;rotation=-90;" parent="P7q6h8zH5KanoZMI_rnn-13" vertex="1">
          <mxGeometry x="100" y="5" width="15" height="20" as="geometry" />
        </mxCell>
        <mxCell id="6e0c8c40b5770093-27" value="model" style="shape=folder;fontStyle=1;spacingTop=10;tabWidth=50;tabHeight=17;tabPosition=left;html=1;rounded=0;shadow=0;comic=0;labelBackgroundColor=none;strokeWidth=1;fontFamily=Verdana;fontSize=10;align=center;" parent="P7q6h8zH5KanoZMI_rnn-13" vertex="1">
          <mxGeometry x="59" y="82" width="112" height="70" as="geometry" />
        </mxCell>
        <mxCell id="6e0c8c40b5770093-31" value="controller" style="shape=folder;fontStyle=1;spacingTop=10;tabWidth=50;tabHeight=17;tabPosition=left;html=1;rounded=0;shadow=0;comic=0;labelBackgroundColor=none;strokeWidth=1;fontFamily=Verdana;fontSize=10;align=center;" parent="P7q6h8zH5KanoZMI_rnn-13" vertex="1">
          <mxGeometry x="59" y="208" width="112" height="70" as="geometry" />
        </mxCell>
        <mxCell id="6e0c8c40b5770093-28" value="service" style="shape=folder;fontStyle=1;spacingTop=10;tabWidth=50;tabHeight=17;tabPosition=left;html=1;rounded=0;shadow=0;comic=0;labelBackgroundColor=none;strokeWidth=1;fontFamily=Verdana;fontSize=10;align=center;" parent="P7q6h8zH5KanoZMI_rnn-13" vertex="1">
          <mxGeometry x="59" y="343" width="112" height="70" as="geometry" />
        </mxCell>
        <mxCell id="P7q6h8zH5KanoZMI_rnn-8" value="repository" style="shape=folder;fontStyle=1;spacingTop=10;tabWidth=50;tabHeight=17;tabPosition=left;html=1;rounded=0;shadow=0;comic=0;labelBackgroundColor=none;strokeWidth=1;fontFamily=Verdana;fontSize=10;align=center;" vertex="1" parent="P7q6h8zH5KanoZMI_rnn-13">
          <mxGeometry x="59" y="453" width="112" height="70" as="geometry" />
        </mxCell>
        <mxCell id="P7q6h8zH5KanoZMI_rnn-9" value="exception" style="shape=folder;fontStyle=1;spacingTop=10;tabWidth=50;tabHeight=17;tabPosition=left;html=1;rounded=0;shadow=0;comic=0;labelBackgroundColor=none;strokeWidth=1;fontFamily=Verdana;fontSize=10;align=center;" vertex="1" parent="P7q6h8zH5KanoZMI_rnn-13">
          <mxGeometry x="59" y="583" width="112" height="70" as="geometry" />
        </mxCell>
        <mxCell id="P7q6h8zH5KanoZMI_rnn-12" value="&lt;div&gt;packages&lt;/div&gt;" style="text;strokeColor=none;align=center;fillColor=none;html=1;verticalAlign=middle;whiteSpace=wrap;rounded=0;" vertex="1" parent="P7q6h8zH5KanoZMI_rnn-13">
          <mxGeometry width="60" height="30" as="geometry" />
        </mxCell>
        <mxCell id="P7q6h8zH5KanoZMI_rnn-32" value="" style="group" vertex="1" connectable="0" parent="1">
          <mxGeometry x="335.5" y="150" width="460" height="133" as="geometry" />
        </mxCell>
        <mxCell id="6e0c8c40b5770093-47" value="" style="shape=folder;fontStyle=1;spacingTop=10;tabWidth=123;tabHeight=24;tabPosition=left;html=1;rounded=0;shadow=0;comic=0;labelBackgroundColor=none;strokeWidth=1;fontFamily=Verdana;fontSize=10;align=center;" parent="P7q6h8zH5KanoZMI_rnn-32" vertex="1">
          <mxGeometry y="3" width="460" height="130" as="geometry" />
        </mxCell>
        <mxCell id="6e0c8c40b5770093-48" value="" style="triangle;whiteSpace=wrap;html=1;rounded=0;shadow=0;comic=0;labelBackgroundColor=none;strokeWidth=1;fontFamily=Verdana;fontSize=10;align=center;rotation=-90;" parent="P7q6h8zH5KanoZMI_rnn-32" vertex="1">
          <mxGeometry x="96" y="5" width="15" height="20" as="geometry" />
        </mxCell>
        <mxCell id="P7q6h8zH5KanoZMI_rnn-14" value="model" style="text;strokeColor=none;align=center;fillColor=none;html=1;verticalAlign=middle;whiteSpace=wrap;rounded=0;" vertex="1" parent="P7q6h8zH5KanoZMI_rnn-32">
          <mxGeometry width="60" height="30" as="geometry" />
        </mxCell>
        <mxCell id="P7q6h8zH5KanoZMI_rnn-22" value="" style="group" vertex="1" connectable="0" parent="P7q6h8zH5KanoZMI_rnn-32">
          <mxGeometry x="10" y="53" width="120" height="60" as="geometry" />
        </mxCell>
        <mxCell id="P7q6h8zH5KanoZMI_rnn-15" value="" style="rounded=0;whiteSpace=wrap;html=1;" vertex="1" parent="P7q6h8zH5KanoZMI_rnn-22">
          <mxGeometry width="120" height="60" as="geometry" />
        </mxCell>
        <mxCell id="P7q6h8zH5KanoZMI_rnn-21" value="Ingredient" style="text;strokeColor=none;align=center;fillColor=none;html=1;verticalAlign=middle;whiteSpace=wrap;rounded=0;fontStyle=1" vertex="1" parent="P7q6h8zH5KanoZMI_rnn-22">
          <mxGeometry x="26" y="15" width="60" height="30" as="geometry" />
        </mxCell>
        <mxCell id="P7q6h8zH5KanoZMI_rnn-24" value="" style="group" vertex="1" connectable="0" parent="P7q6h8zH5KanoZMI_rnn-32">
          <mxGeometry x="160" y="53" width="120" height="60" as="geometry" />
        </mxCell>
        <mxCell id="P7q6h8zH5KanoZMI_rnn-25" value="" style="rounded=0;whiteSpace=wrap;html=1;" vertex="1" parent="P7q6h8zH5KanoZMI_rnn-24">
          <mxGeometry width="120" height="60" as="geometry" />
        </mxCell>
        <mxCell id="P7q6h8zH5KanoZMI_rnn-26" value="Recipe" style="text;strokeColor=none;align=center;fillColor=none;html=1;verticalAlign=middle;whiteSpace=wrap;rounded=0;fontStyle=1" vertex="1" parent="P7q6h8zH5KanoZMI_rnn-24">
          <mxGeometry x="26" y="15" width="60" height="30" as="geometry" />
        </mxCell>
        <mxCell id="P7q6h8zH5KanoZMI_rnn-29" value="" style="group" vertex="1" connectable="0" parent="P7q6h8zH5KanoZMI_rnn-32">
          <mxGeometry x="310" y="53" width="120" height="60" as="geometry" />
        </mxCell>
        <mxCell id="P7q6h8zH5KanoZMI_rnn-30" value="" style="rounded=0;whiteSpace=wrap;html=1;" vertex="1" parent="P7q6h8zH5KanoZMI_rnn-29">
          <mxGeometry width="120" height="60" as="geometry" />
        </mxCell>
        <mxCell id="P7q6h8zH5KanoZMI_rnn-31" value="ShoppingList" style="text;strokeColor=none;align=center;fillColor=none;html=1;verticalAlign=middle;whiteSpace=wrap;rounded=0;fontStyle=1" vertex="1" parent="P7q6h8zH5KanoZMI_rnn-29">
          <mxGeometry x="26" y="15" width="60" height="30" as="geometry" />
        </mxCell>
        <mxCell id="P7q6h8zH5KanoZMI_rnn-83" value="" style="group" vertex="1" connectable="0" parent="1">
          <mxGeometry x="337" y="720" width="300" height="133" as="geometry" />
        </mxCell>
        <mxCell id="P7q6h8zH5KanoZMI_rnn-73" value="" style="shape=folder;fontStyle=1;spacingTop=10;tabWidth=123;tabHeight=24;tabPosition=left;html=1;rounded=0;shadow=0;comic=0;labelBackgroundColor=none;strokeWidth=1;fontFamily=Verdana;fontSize=10;align=center;" vertex="1" parent="P7q6h8zH5KanoZMI_rnn-83">
          <mxGeometry y="3" width="300" height="130" as="geometry" />
        </mxCell>
        <mxCell id="P7q6h8zH5KanoZMI_rnn-74" value="" style="triangle;whiteSpace=wrap;html=1;rounded=0;shadow=0;comic=0;labelBackgroundColor=none;strokeWidth=1;fontFamily=Verdana;fontSize=10;align=center;rotation=-90;" vertex="1" parent="P7q6h8zH5KanoZMI_rnn-83">
          <mxGeometry x="96" y="5" width="15" height="20" as="geometry" />
        </mxCell>
        <mxCell id="P7q6h8zH5KanoZMI_rnn-75" value="repository" style="text;strokeColor=none;align=center;fillColor=none;html=1;verticalAlign=middle;whiteSpace=wrap;rounded=0;" vertex="1" parent="P7q6h8zH5KanoZMI_rnn-83">
          <mxGeometry width="60" height="30" as="geometry" />
        </mxCell>
        <mxCell id="P7q6h8zH5KanoZMI_rnn-79" value="" style="group" vertex="1" connectable="0" parent="P7q6h8zH5KanoZMI_rnn-83">
          <mxGeometry x="160" y="53" width="120" height="60" as="geometry" />
        </mxCell>
        <mxCell id="P7q6h8zH5KanoZMI_rnn-80" value="" style="rounded=0;whiteSpace=wrap;html=1;" vertex="1" parent="P7q6h8zH5KanoZMI_rnn-79">
          <mxGeometry width="120" height="60" as="geometry" />
        </mxCell>
        <mxCell id="P7q6h8zH5KanoZMI_rnn-81" value="RecipeRepository" style="text;strokeColor=none;align=center;fillColor=none;html=1;verticalAlign=middle;whiteSpace=wrap;rounded=0;fontStyle=1" vertex="1" parent="P7q6h8zH5KanoZMI_rnn-79">
          <mxGeometry x="30" y="15" width="60" height="30" as="geometry" />
        </mxCell>
        <mxCell id="P7q6h8zH5KanoZMI_rnn-82" value="" style="group" vertex="1" connectable="0" parent="P7q6h8zH5KanoZMI_rnn-83">
          <mxGeometry x="10" y="53" width="130" height="60" as="geometry" />
        </mxCell>
        <mxCell id="P7q6h8zH5KanoZMI_rnn-77" value="" style="rounded=0;whiteSpace=wrap;html=1;" vertex="1" parent="P7q6h8zH5KanoZMI_rnn-82">
          <mxGeometry width="130" height="60" as="geometry" />
        </mxCell>
        <mxCell id="P7q6h8zH5KanoZMI_rnn-78" value="IngredientRepository" style="text;strokeColor=none;align=center;fillColor=none;html=1;verticalAlign=middle;whiteSpace=wrap;rounded=0;fontStyle=1" vertex="1" parent="P7q6h8zH5KanoZMI_rnn-82">
          <mxGeometry x="35" y="15" width="60" height="30" as="geometry" />
        </mxCell>
        <mxCell id="P7q6h8zH5KanoZMI_rnn-99" value="" style="group" vertex="1" connectable="0" parent="1">
          <mxGeometry x="335.5" y="880" width="518.5" height="133" as="geometry" />
        </mxCell>
        <mxCell id="P7q6h8zH5KanoZMI_rnn-85" value="" style="shape=folder;fontStyle=1;spacingTop=10;tabWidth=123;tabHeight=24;tabPosition=left;html=1;rounded=0;shadow=0;comic=0;labelBackgroundColor=none;strokeWidth=1;fontFamily=Verdana;fontSize=10;align=center;" vertex="1" parent="P7q6h8zH5KanoZMI_rnn-99">
          <mxGeometry y="3" width="518.5" height="130" as="geometry" />
        </mxCell>
        <mxCell id="P7q6h8zH5KanoZMI_rnn-86" value="" style="triangle;whiteSpace=wrap;html=1;rounded=0;shadow=0;comic=0;labelBackgroundColor=none;strokeWidth=1;fontFamily=Verdana;fontSize=10;align=center;rotation=-90;" vertex="1" parent="P7q6h8zH5KanoZMI_rnn-99">
          <mxGeometry x="96" y="5" width="15" height="20" as="geometry" />
        </mxCell>
        <mxCell id="P7q6h8zH5KanoZMI_rnn-87" value="exception" style="text;strokeColor=none;align=center;fillColor=none;html=1;verticalAlign=middle;whiteSpace=wrap;rounded=0;" vertex="1" parent="P7q6h8zH5KanoZMI_rnn-99">
          <mxGeometry width="60" height="30" as="geometry" />
        </mxCell>
        <mxCell id="P7q6h8zH5KanoZMI_rnn-91" value="" style="group" vertex="1" connectable="0" parent="P7q6h8zH5KanoZMI_rnn-99">
          <mxGeometry x="188.5" y="53" width="150" height="60" as="geometry" />
        </mxCell>
        <mxCell id="P7q6h8zH5KanoZMI_rnn-92" value="" style="rounded=0;whiteSpace=wrap;html=1;" vertex="1" parent="P7q6h8zH5KanoZMI_rnn-91">
          <mxGeometry width="150" height="60" as="geometry" />
        </mxCell>
        <mxCell id="P7q6h8zH5KanoZMI_rnn-93" value="ItemNotFoundException" style="text;strokeColor=none;align=center;fillColor=none;html=1;verticalAlign=middle;whiteSpace=wrap;rounded=0;fontStyle=1" vertex="1" parent="P7q6h8zH5KanoZMI_rnn-91">
          <mxGeometry x="37.5" y="15" width="75" height="30" as="geometry" />
        </mxCell>
        <mxCell id="P7q6h8zH5KanoZMI_rnn-89" value="" style="rounded=0;whiteSpace=wrap;html=1;" vertex="1" parent="P7q6h8zH5KanoZMI_rnn-99">
          <mxGeometry x="10" y="53" width="158.5" height="60" as="geometry" />
        </mxCell>
        <mxCell id="P7q6h8zH5KanoZMI_rnn-90" value="GlobalExceptionHandler" style="text;strokeColor=none;align=center;fillColor=none;html=1;verticalAlign=middle;whiteSpace=wrap;rounded=0;fontStyle=1" vertex="1" parent="P7q6h8zH5KanoZMI_rnn-99">
          <mxGeometry x="60" y="68" width="60" height="30" as="geometry" />
        </mxCell>
        <mxCell id="P7q6h8zH5KanoZMI_rnn-98" value="" style="group" vertex="1" connectable="0" parent="P7q6h8zH5KanoZMI_rnn-99">
          <mxGeometry x="358.5" y="53" width="140" height="60" as="geometry" />
        </mxCell>
        <mxCell id="P7q6h8zH5KanoZMI_rnn-95" value="" style="rounded=0;whiteSpace=wrap;html=1;" vertex="1" parent="P7q6h8zH5KanoZMI_rnn-98">
          <mxGeometry width="140" height="60" as="geometry" />
        </mxCell>
        <mxCell id="P7q6h8zH5KanoZMI_rnn-96" value="ParameterNotDefined" style="text;strokeColor=none;align=center;fillColor=none;html=1;verticalAlign=middle;whiteSpace=wrap;rounded=0;fontStyle=1" vertex="1" parent="P7q6h8zH5KanoZMI_rnn-98">
          <mxGeometry x="40" y="15" width="60" height="30" as="geometry" />
        </mxCell>
        <mxCell id="P7q6h8zH5KanoZMI_rnn-102" value="" style="shape=folder;fontStyle=1;spacingTop=10;tabWidth=194;tabHeight=22;tabPosition=left;html=1;rounded=0;shadow=0;comic=0;labelBackgroundColor=none;strokeWidth=1;fillColor=none;fontFamily=Verdana;fontSize=10;align=center;" vertex="1" parent="1">
          <mxGeometry x="1080" y="115" width="560" height="940" as="geometry" />
        </mxCell>
        <mxCell id="P7q6h8zH5KanoZMI_rnn-103" value="StocknRoll Backend Endpoints" style="text;html=1;align=left;verticalAlign=top;spacingTop=-4;fontSize=10;fontFamily=Verdana" vertex="1" parent="1">
          <mxGeometry x="1100" y="114.5" width="130" height="20" as="geometry" />
        </mxCell>
        <mxCell id="P7q6h8zH5KanoZMI_rnn-117" value="" style="group" vertex="1" connectable="0" parent="1">
          <mxGeometry x="1120" y="160" width="230" height="520" as="geometry" />
        </mxCell>
        <mxCell id="P7q6h8zH5KanoZMI_rnn-105" value="&amp;nbsp;" style="text;whiteSpace=wrap;html=1;" vertex="1" parent="P7q6h8zH5KanoZMI_rnn-117">
          <mxGeometry x="40" y="313" width="40" height="40" as="geometry" />
        </mxCell>
        <mxCell id="P7q6h8zH5KanoZMI_rnn-106" value="" style="shape=folder;fontStyle=1;spacingTop=10;tabWidth=123;tabHeight=24;tabPosition=left;html=1;rounded=0;shadow=0;comic=0;labelBackgroundColor=none;strokeWidth=1;fontFamily=Verdana;fontSize=10;align=center;" vertex="1" parent="P7q6h8zH5KanoZMI_rnn-117">
          <mxGeometry y="3" width="230" height="517" as="geometry" />
        </mxCell>
        <mxCell id="P7q6h8zH5KanoZMI_rnn-108" value="getAllIngredients" style="shape=folder;fontStyle=1;spacingTop=10;tabWidth=50;tabHeight=17;tabPosition=left;html=1;rounded=0;shadow=0;comic=0;labelBackgroundColor=none;strokeWidth=1;fontFamily=Verdana;fontSize=10;align=center;" vertex="1" parent="P7q6h8zH5KanoZMI_rnn-117">
          <mxGeometry x="59" y="40" width="112" height="70" as="geometry" />
        </mxCell>
        <mxCell id="P7q6h8zH5KanoZMI_rnn-109" value="insertIngredient" style="shape=folder;fontStyle=1;spacingTop=10;tabWidth=50;tabHeight=17;tabPosition=left;html=1;rounded=0;shadow=0;comic=0;labelBackgroundColor=none;strokeWidth=1;fontFamily=Verdana;fontSize=10;align=center;" vertex="1" parent="P7q6h8zH5KanoZMI_rnn-117">
          <mxGeometry x="59" y="230" width="112" height="70" as="geometry" />
        </mxCell>
        <mxCell id="P7q6h8zH5KanoZMI_rnn-110" value="updateIngredient" style="shape=folder;fontStyle=1;spacingTop=10;tabWidth=50;tabHeight=17;tabPosition=left;html=1;rounded=0;shadow=0;comic=0;labelBackgroundColor=none;strokeWidth=1;fontFamily=Verdana;fontSize=10;align=center;" vertex="1" parent="P7q6h8zH5KanoZMI_rnn-117">
          <mxGeometry x="59" y="320" width="112" height="70" as="geometry" />
        </mxCell>
        <mxCell id="P7q6h8zH5KanoZMI_rnn-111" value="deleteIngredient" style="shape=folder;fontStyle=1;spacingTop=10;tabWidth=50;tabHeight=17;tabPosition=left;html=1;rounded=0;shadow=0;comic=0;labelBackgroundColor=none;strokeWidth=1;fontFamily=Verdana;fontSize=10;align=center;" vertex="1" parent="P7q6h8zH5KanoZMI_rnn-117">
          <mxGeometry x="59" y="420" width="112" height="70" as="geometry" />
        </mxCell>
        <mxCell id="P7q6h8zH5KanoZMI_rnn-113" value="IngredientController" style="text;strokeColor=none;align=center;fillColor=none;html=1;verticalAlign=middle;whiteSpace=wrap;rounded=0;" vertex="1" parent="P7q6h8zH5KanoZMI_rnn-117">
          <mxGeometry x="30" width="60" height="30" as="geometry" />
        </mxCell>
        <mxCell id="P7q6h8zH5KanoZMI_rnn-116" value="getIngredient&lt;br&gt;ByName" style="shape=folder;fontStyle=1;spacingTop=10;tabWidth=50;tabHeight=17;tabPosition=left;html=1;rounded=0;shadow=0;comic=0;labelBackgroundColor=none;strokeWidth=1;fontFamily=Verdana;fontSize=10;align=center;" vertex="1" parent="P7q6h8zH5KanoZMI_rnn-117">
          <mxGeometry x="59" y="135" width="112" height="70" as="geometry" />
        </mxCell>
        <mxCell id="P7q6h8zH5KanoZMI_rnn-34" value="" style="shape=folder;fontStyle=1;spacingTop=10;tabWidth=123;tabHeight=24;tabPosition=left;html=1;rounded=0;shadow=0;comic=0;labelBackgroundColor=none;strokeWidth=1;fontFamily=Verdana;fontSize=10;align=center;" vertex="1" parent="1">
          <mxGeometry x="335.5" y="313" width="304.5" height="130" as="geometry" />
        </mxCell>
        <mxCell id="P7q6h8zH5KanoZMI_rnn-35" value="" style="triangle;whiteSpace=wrap;html=1;rounded=0;shadow=0;comic=0;labelBackgroundColor=none;strokeWidth=1;fontFamily=Verdana;fontSize=10;align=center;rotation=-90;" vertex="1" parent="1">
          <mxGeometry x="431.5" y="315" width="15" height="20" as="geometry" />
        </mxCell>
        <mxCell id="P7q6h8zH5KanoZMI_rnn-36" value="controller" style="text;strokeColor=none;align=center;fillColor=none;html=1;verticalAlign=middle;whiteSpace=wrap;rounded=0;" vertex="1" parent="1">
          <mxGeometry x="335.5" y="310" width="60" height="30" as="geometry" />
        </mxCell>
        <mxCell id="P7q6h8zH5KanoZMI_rnn-37" value="" style="group" vertex="1" connectable="0" parent="1">
          <mxGeometry x="345.5" y="363" width="120" height="60" as="geometry" />
        </mxCell>
        <mxCell id="P7q6h8zH5KanoZMI_rnn-38" value="" style="rounded=0;whiteSpace=wrap;html=1;" vertex="1" parent="P7q6h8zH5KanoZMI_rnn-37">
          <mxGeometry width="120" height="60" as="geometry" />
        </mxCell>
        <mxCell id="P7q6h8zH5KanoZMI_rnn-39" value="IngredientController" style="text;strokeColor=none;align=center;fillColor=none;html=1;verticalAlign=middle;whiteSpace=wrap;rounded=0;fontStyle=1" vertex="1" parent="P7q6h8zH5KanoZMI_rnn-37">
          <mxGeometry x="30" y="15" width="60" height="30" as="geometry" />
        </mxCell>
        <mxCell id="P7q6h8zH5KanoZMI_rnn-40" value="" style="group" vertex="1" connectable="0" parent="1">
          <mxGeometry x="495.5" y="363" width="120" height="60" as="geometry" />
        </mxCell>
        <mxCell id="P7q6h8zH5KanoZMI_rnn-41" value="" style="rounded=0;whiteSpace=wrap;html=1;" vertex="1" parent="P7q6h8zH5KanoZMI_rnn-40">
          <mxGeometry width="120" height="60" as="geometry" />
        </mxCell>
        <mxCell id="P7q6h8zH5KanoZMI_rnn-42" value="&lt;div&gt;RecipeController&lt;/div&gt;" style="text;strokeColor=none;align=center;fillColor=none;html=1;verticalAlign=middle;whiteSpace=wrap;rounded=0;fontStyle=1" vertex="1" parent="P7q6h8zH5KanoZMI_rnn-40">
          <mxGeometry x="30" y="15" width="60" height="30" as="geometry" />
        </mxCell>
        <mxCell id="P7q6h8zH5KanoZMI_rnn-49" value="" style="shape=folder;fontStyle=1;spacingTop=10;tabWidth=123;tabHeight=24;tabPosition=left;html=1;rounded=0;shadow=0;comic=0;labelBackgroundColor=none;strokeWidth=1;fontFamily=Verdana;fontSize=10;align=center;" vertex="1" parent="1">
          <mxGeometry x="335.5" y="473" width="384.5" height="227" as="geometry" />
        </mxCell>
        <mxCell id="P7q6h8zH5KanoZMI_rnn-50" value="" style="triangle;whiteSpace=wrap;html=1;rounded=0;shadow=0;comic=0;labelBackgroundColor=none;strokeWidth=1;fontFamily=Verdana;fontSize=10;align=center;rotation=-90;" vertex="1" parent="1">
          <mxGeometry x="431.5" y="475" width="15" height="20" as="geometry" />
        </mxCell>
        <mxCell id="P7q6h8zH5KanoZMI_rnn-51" value="service" style="text;strokeColor=none;align=center;fillColor=none;html=1;verticalAlign=middle;whiteSpace=wrap;rounded=0;" vertex="1" parent="1">
          <mxGeometry x="335.5" y="470" width="60" height="30" as="geometry" />
        </mxCell>
        <mxCell id="P7q6h8zH5KanoZMI_rnn-70" value="" style="edgeStyle=orthogonalEdgeStyle;rounded=0;orthogonalLoop=1;jettySize=auto;html=1;" edge="1" parent="1" source="P7q6h8zH5KanoZMI_rnn-60" target="P7q6h8zH5KanoZMI_rnn-54">
          <mxGeometry relative="1" as="geometry" />
        </mxCell>
        <mxCell id="P7q6h8zH5KanoZMI_rnn-52" value="" style="group" vertex="1" connectable="0" parent="1">
          <mxGeometry x="369" y="620" width="140" height="60" as="geometry" />
        </mxCell>
        <mxCell id="P7q6h8zH5KanoZMI_rnn-53" value="" style="rounded=0;whiteSpace=wrap;html=1;" vertex="1" parent="P7q6h8zH5KanoZMI_rnn-52">
          <mxGeometry width="140" height="60" as="geometry" />
        </mxCell>
        <mxCell id="P7q6h8zH5KanoZMI_rnn-54" value="IngredientServiceImpl" style="text;strokeColor=none;align=center;fillColor=none;html=1;verticalAlign=middle;whiteSpace=wrap;rounded=0;fontStyle=1" vertex="1" parent="P7q6h8zH5KanoZMI_rnn-52">
          <mxGeometry x="35" y="15" width="70" height="30" as="geometry" />
        </mxCell>
        <mxCell id="P7q6h8zH5KanoZMI_rnn-60" value="IngredientService" style="shape=folder;fontStyle=1;spacingTop=10;tabWidth=50;tabHeight=17;tabPosition=left;html=1;rounded=0;shadow=0;comic=0;labelBackgroundColor=none;strokeWidth=1;fontFamily=Verdana;fontSize=10;align=center;" vertex="1" parent="1">
          <mxGeometry x="355.5" y="513" width="112" height="67" as="geometry" />
        </mxCell>
        <mxCell id="P7q6h8zH5KanoZMI_rnn-62" value="i" style="text;strokeColor=none;align=center;fillColor=none;html=1;verticalAlign=middle;whiteSpace=wrap;rounded=0;" vertex="1" parent="1">
          <mxGeometry x="337" y="506" width="60" height="30" as="geometry" />
        </mxCell>
        <mxCell id="P7q6h8zH5KanoZMI_rnn-69" value="" style="edgeStyle=orthogonalEdgeStyle;rounded=0;orthogonalLoop=1;jettySize=auto;html=1;" edge="1" parent="1" source="P7q6h8zH5KanoZMI_rnn-64" target="P7q6h8zH5KanoZMI_rnn-68">
          <mxGeometry relative="1" as="geometry" />
        </mxCell>
        <mxCell id="P7q6h8zH5KanoZMI_rnn-64" value="RecipeService" style="shape=folder;fontStyle=1;spacingTop=10;tabWidth=50;tabHeight=17;tabPosition=left;html=1;rounded=0;shadow=0;comic=0;labelBackgroundColor=none;strokeWidth=1;fontFamily=Verdana;fontSize=10;align=center;" vertex="1" parent="1">
          <mxGeometry x="529" y="513" width="112" height="67" as="geometry" />
        </mxCell>
        <mxCell id="P7q6h8zH5KanoZMI_rnn-65" value="i" style="text;strokeColor=none;align=center;fillColor=none;html=1;verticalAlign=middle;whiteSpace=wrap;rounded=0;" vertex="1" parent="1">
          <mxGeometry x="509" y="506" width="60" height="30" as="geometry" />
        </mxCell>
        <mxCell id="P7q6h8zH5KanoZMI_rnn-66" value="" style="group" vertex="1" connectable="0" parent="1">
          <mxGeometry x="555.5" y="620" width="140" height="60" as="geometry" />
        </mxCell>
        <mxCell id="P7q6h8zH5KanoZMI_rnn-67" value="" style="rounded=0;whiteSpace=wrap;html=1;" vertex="1" parent="P7q6h8zH5KanoZMI_rnn-66">
          <mxGeometry width="140" height="60" as="geometry" />
        </mxCell>
        <mxCell id="P7q6h8zH5KanoZMI_rnn-68" value="RecipeServiceImpl" style="text;strokeColor=none;align=center;fillColor=none;html=1;verticalAlign=middle;whiteSpace=wrap;rounded=0;fontStyle=1" vertex="1" parent="P7q6h8zH5KanoZMI_rnn-66">
          <mxGeometry x="35" y="15" width="70" height="30" as="geometry" />
        </mxCell>
        <mxCell id="P7q6h8zH5KanoZMI_rnn-120" value="" style="shape=folder;fontStyle=1;spacingTop=10;tabWidth=170;tabHeight=27;tabPosition=left;html=1;rounded=0;shadow=0;comic=0;labelBackgroundColor=none;strokeWidth=1;fontFamily=Verdana;fontSize=10;align=center;" vertex="1" parent="1">
          <mxGeometry x="1380" y="163" width="230" height="777" as="geometry" />
        </mxCell>
        <mxCell id="P7q6h8zH5KanoZMI_rnn-145" value="RecipeController" style="text;strokeColor=none;align=center;fillColor=none;html=1;verticalAlign=middle;whiteSpace=wrap;rounded=0;" vertex="1" parent="1">
          <mxGeometry x="1361" y="160" width="190" height="30" as="geometry" />
        </mxCell>
        <mxCell id="P7q6h8zH5KanoZMI_rnn-119" value="&amp;nbsp;" style="text;whiteSpace=wrap;html=1;" vertex="1" parent="1">
          <mxGeometry x="1420" y="473" width="40" height="40" as="geometry" />
        </mxCell>
        <mxCell id="P7q6h8zH5KanoZMI_rnn-121" value="getAllRecipes" style="shape=folder;fontStyle=1;spacingTop=10;tabWidth=50;tabHeight=17;tabPosition=left;html=1;rounded=0;shadow=0;comic=0;labelBackgroundColor=none;strokeWidth=1;fontFamily=Verdana;fontSize=10;align=center;" vertex="1" parent="1">
          <mxGeometry x="1439" y="200" width="112" height="70" as="geometry" />
        </mxCell>
        <mxCell id="P7q6h8zH5KanoZMI_rnn-122" value="insertRecipe" style="shape=folder;fontStyle=1;spacingTop=10;tabWidth=50;tabHeight=17;tabPosition=left;html=1;rounded=0;shadow=0;comic=0;labelBackgroundColor=none;strokeWidth=1;fontFamily=Verdana;fontSize=10;align=center;" vertex="1" parent="1">
          <mxGeometry x="1439" y="656.5" width="112" height="70" as="geometry" />
        </mxCell>
        <mxCell id="P7q6h8zH5KanoZMI_rnn-123" value="updateRecipe" style="shape=folder;fontStyle=1;spacingTop=10;tabWidth=50;tabHeight=17;tabPosition=left;html=1;rounded=0;shadow=0;comic=0;labelBackgroundColor=none;strokeWidth=1;fontFamily=Verdana;fontSize=10;align=center;" vertex="1" parent="1">
          <mxGeometry x="1439" y="746.5" width="112" height="70" as="geometry" />
        </mxCell>
        <mxCell id="P7q6h8zH5KanoZMI_rnn-124" value="deleteRecipe" style="shape=folder;fontStyle=1;spacingTop=10;tabWidth=50;tabHeight=17;tabPosition=left;html=1;rounded=0;shadow=0;comic=0;labelBackgroundColor=none;strokeWidth=1;fontFamily=Verdana;fontSize=10;align=center;" vertex="1" parent="1">
          <mxGeometry x="1439" y="846.5" width="112" height="70" as="geometry" />
        </mxCell>
        <mxCell id="P7q6h8zH5KanoZMI_rnn-126" value="getRecipe&lt;br&gt;ByName" style="shape=folder;fontStyle=1;spacingTop=10;tabWidth=50;tabHeight=17;tabPosition=left;html=1;rounded=0;shadow=0;comic=0;labelBackgroundColor=none;strokeWidth=1;fontFamily=Verdana;fontSize=10;align=center;" vertex="1" parent="1">
          <mxGeometry x="1439" y="295" width="112" height="70" as="geometry" />
        </mxCell>
        <mxCell id="P7q6h8zH5KanoZMI_rnn-156" value="getRecipesBy&lt;br&gt;Ingredients" style="shape=folder;fontStyle=1;spacingTop=10;tabWidth=50;tabHeight=17;tabPosition=left;html=1;rounded=0;shadow=0;comic=0;labelBackgroundColor=none;strokeWidth=1;fontFamily=Verdana;fontSize=10;align=center;" vertex="1" parent="1">
          <mxGeometry x="1440" y="388" width="112" height="70" as="geometry" />
        </mxCell>
        <mxCell id="P7q6h8zH5KanoZMI_rnn-161" value="getRecipesBy&lt;br&gt;Criteria" style="shape=folder;fontStyle=1;spacingTop=10;tabWidth=50;tabHeight=17;tabPosition=left;html=1;rounded=0;shadow=0;comic=0;labelBackgroundColor=none;strokeWidth=1;fontFamily=Verdana;fontSize=10;align=center;" vertex="1" parent="1">
          <mxGeometry x="1440" y="476" width="112" height="70" as="geometry" />
        </mxCell>
        <mxCell id="P7q6h8zH5KanoZMI_rnn-160" value="getRecipe&lt;br&gt;ById" style="shape=folder;fontStyle=1;spacingTop=10;tabWidth=50;tabHeight=17;tabPosition=left;html=1;rounded=0;shadow=0;comic=0;labelBackgroundColor=none;strokeWidth=1;fontFamily=Verdana;fontSize=10;align=center;" vertex="1" parent="1">
          <mxGeometry x="1440" y="560" width="112" height="70" as="geometry" />
        </mxCell>
        <mxCell id="P7q6h8zH5KanoZMI_rnn-183" value="" style="group" vertex="1" connectable="0" parent="1">
          <mxGeometry x="750" y="470" width="160" height="228.5" as="geometry" />
        </mxCell>
        <mxCell id="P7q6h8zH5KanoZMI_rnn-179" value="" style="shape=folder;fontStyle=1;spacingTop=10;tabWidth=123;tabHeight=24;tabPosition=left;html=1;rounded=0;shadow=0;comic=0;labelBackgroundColor=none;strokeWidth=1;fontFamily=Verdana;fontSize=10;align=center;" vertex="1" parent="P7q6h8zH5KanoZMI_rnn-183">
          <mxGeometry y="1.5" width="160" height="227" as="geometry" />
        </mxCell>
        <mxCell id="P7q6h8zH5KanoZMI_rnn-180" value="service.spoonacular" style="text;strokeColor=none;align=center;fillColor=none;html=1;verticalAlign=middle;whiteSpace=wrap;rounded=0;" vertex="1" parent="P7q6h8zH5KanoZMI_rnn-183">
          <mxGeometry width="120" height="30" as="geometry" />
        </mxCell>
        <mxCell id="P7q6h8zH5KanoZMI_rnn-172" value="" style="rounded=0;whiteSpace=wrap;html=1;" vertex="1" parent="P7q6h8zH5KanoZMI_rnn-183">
          <mxGeometry x="10" y="40" width="140" height="60" as="geometry" />
        </mxCell>
        <mxCell id="P7q6h8zH5KanoZMI_rnn-171" value="" style="group" vertex="1" connectable="0" parent="P7q6h8zH5KanoZMI_rnn-183">
          <mxGeometry x="10" y="40" width="140" height="60" as="geometry" />
        </mxCell>
        <mxCell id="P7q6h8zH5KanoZMI_rnn-175" value="SpoonacularApiService" style="text;strokeColor=none;align=center;fillColor=none;html=1;verticalAlign=middle;whiteSpace=wrap;rounded=0;fontStyle=1" vertex="1" parent="P7q6h8zH5KanoZMI_rnn-171">
          <mxGeometry x="18.5" y="12.5" width="103" height="35" as="geometry" />
        </mxCell>
        <mxCell id="P7q6h8zH5KanoZMI_rnn-184" value="3rd party" style="text;strokeColor=none;align=center;fillColor=none;html=1;verticalAlign=middle;whiteSpace=wrap;rounded=0;" vertex="1" parent="1">
          <mxGeometry x="1436" y="380" width="60" height="30" as="geometry" />
        </mxCell>
        <mxCell id="P7q6h8zH5KanoZMI_rnn-185" value="3rd party" style="text;strokeColor=none;align=center;fillColor=none;html=1;verticalAlign=middle;whiteSpace=wrap;rounded=0;" vertex="1" parent="1">
          <mxGeometry x="1435" y="469" width="60" height="30" as="geometry" />
        </mxCell>
        <mxCell id="P7q6h8zH5KanoZMI_rnn-186" value="3rd party" style="text;strokeColor=none;align=center;fillColor=none;html=1;verticalAlign=middle;whiteSpace=wrap;rounded=0;" vertex="1" parent="1">
          <mxGeometry x="1436" y="552" width="60" height="30" as="geometry" />
        </mxCell>
        <mxCell id="P7q6h8zH5KanoZMI_rnn-188" value="" style="shape=folder;fontStyle=1;spacingTop=10;tabWidth=123;tabHeight=24;tabPosition=left;html=1;rounded=0;shadow=0;comic=0;labelBackgroundColor=none;strokeWidth=1;fontFamily=Verdana;fontSize=10;align=center;" vertex="1" parent="1">
          <mxGeometry x="840" y="151.5" width="160" height="308.5" as="geometry" />
        </mxCell>
        <mxCell id="P7q6h8zH5KanoZMI_rnn-189" value="model.spoonacular" style="text;strokeColor=none;align=center;fillColor=none;html=1;verticalAlign=middle;whiteSpace=wrap;rounded=0;" vertex="1" parent="1">
          <mxGeometry x="840" y="150" width="120" height="30" as="geometry" />
        </mxCell>
        <mxCell id="P7q6h8zH5KanoZMI_rnn-190" value="" style="rounded=0;whiteSpace=wrap;html=1;" vertex="1" parent="1">
          <mxGeometry x="850" y="190" width="140" height="40" as="geometry" />
        </mxCell>
        <mxCell id="P7q6h8zH5KanoZMI_rnn-191" value="" style="group" vertex="1" connectable="0" parent="1">
          <mxGeometry x="850" y="190" width="140" height="60" as="geometry" />
        </mxCell>
        <mxCell id="P7q6h8zH5KanoZMI_rnn-192" value="RecipeCriteriaOuter" style="text;strokeColor=none;align=center;fillColor=none;html=1;verticalAlign=middle;whiteSpace=wrap;rounded=0;fontStyle=1" vertex="1" parent="P7q6h8zH5KanoZMI_rnn-191">
          <mxGeometry x="18.5" y="4" width="103" height="35" as="geometry" />
        </mxCell>
        <mxCell id="P7q6h8zH5KanoZMI_rnn-200" value="" style="group" vertex="1" connectable="0" parent="1">
          <mxGeometry x="850" y="230" width="140" height="60" as="geometry" />
        </mxCell>
        <mxCell id="P7q6h8zH5KanoZMI_rnn-195" value="" style="rounded=0;whiteSpace=wrap;html=1;" vertex="1" parent="P7q6h8zH5KanoZMI_rnn-200">
          <mxGeometry y="10" width="140" height="40" as="geometry" />
        </mxCell>
        <mxCell id="P7q6h8zH5KanoZMI_rnn-196" value="" style="group" vertex="1" connectable="0" parent="P7q6h8zH5KanoZMI_rnn-200">
          <mxGeometry width="140" height="60" as="geometry" />
        </mxCell>
        <mxCell id="P7q6h8zH5KanoZMI_rnn-197" value="RecipeCriteriaResults" style="text;strokeColor=none;align=center;fillColor=none;html=1;verticalAlign=middle;whiteSpace=wrap;rounded=0;fontStyle=1" vertex="1" parent="P7q6h8zH5KanoZMI_rnn-196">
          <mxGeometry x="18.5" y="12.5" width="103" height="35" as="geometry" />
        </mxCell>
        <mxCell id="P7q6h8zH5KanoZMI_rnn-201" value="" style="group" vertex="1" connectable="0" parent="1">
          <mxGeometry x="850" y="280" width="140" height="60" as="geometry" />
        </mxCell>
        <mxCell id="P7q6h8zH5KanoZMI_rnn-202" value="" style="rounded=0;whiteSpace=wrap;html=1;" vertex="1" parent="P7q6h8zH5KanoZMI_rnn-201">
          <mxGeometry y="10" width="140" height="40" as="geometry" />
        </mxCell>
        <mxCell id="P7q6h8zH5KanoZMI_rnn-203" value="" style="group" vertex="1" connectable="0" parent="P7q6h8zH5KanoZMI_rnn-201">
          <mxGeometry width="140" height="60" as="geometry" />
        </mxCell>
        <mxCell id="P7q6h8zH5KanoZMI_rnn-204" value="RecipeIngrdResults" style="text;strokeColor=none;align=center;fillColor=none;html=1;verticalAlign=middle;whiteSpace=wrap;rounded=0;fontStyle=1" vertex="1" parent="P7q6h8zH5KanoZMI_rnn-203">
          <mxGeometry x="18.5" y="12.5" width="103" height="35" as="geometry" />
        </mxCell>
        <mxCell id="P7q6h8zH5KanoZMI_rnn-207" value="" style="group" vertex="1" connectable="0" parent="1">
          <mxGeometry x="850" y="330" width="140" height="60" as="geometry" />
        </mxCell>
        <mxCell id="P7q6h8zH5KanoZMI_rnn-208" value="" style="rounded=0;whiteSpace=wrap;html=1;" vertex="1" parent="P7q6h8zH5KanoZMI_rnn-207">
          <mxGeometry y="10" width="140" height="40" as="geometry" />
        </mxCell>
        <mxCell id="P7q6h8zH5KanoZMI_rnn-209" value="" style="group" vertex="1" connectable="0" parent="P7q6h8zH5KanoZMI_rnn-207">
          <mxGeometry width="140" height="60" as="geometry" />
        </mxCell>
        <mxCell id="P7q6h8zH5KanoZMI_rnn-210" value="GetRecipeInfoResults" style="text;strokeColor=none;align=center;fillColor=none;html=1;verticalAlign=middle;whiteSpace=wrap;rounded=0;fontStyle=1" vertex="1" parent="P7q6h8zH5KanoZMI_rnn-209">
          <mxGeometry x="18.5" y="12.5" width="103" height="35" as="geometry" />
        </mxCell>
      </root>
    </mxGraphModel>
  </diagram>
</mxfile>
